<svg id="Layer_1" data-name="Layer 1" xmlns="http://www.w3.org/2000/svg" xmlns:xlink="http://www.w3.org/1999/xlink" viewBox="0 0 500.1 105.59"><defs><style>.cls-1{fill:url(#linear-gradient);}.cls-2{fill:url(#linear-gradient-2);}</style><linearGradient id="linear-gradient" x1="7.33" y1="62.93" x2="43.22" y2="98.83" gradientUnits="userSpaceOnUse"><stop offset="0" stop-color="#fdbb39"/><stop offset="0.11" stop-color="#ffac5c"/><stop offset="0.22" stop-color="#ffa180"/><stop offset="0.33" stop-color="#ff9da5"/><stop offset="0.44" stop-color="#ff9dc7"/><stop offset="0.56" stop-color="#ffa7e5"/><stop offset="0.67" stop-color="#efb4fb"/><stop offset="0.78" stop-color="#d1c1ff"/><stop offset="0.89" stop-color="#b2c7ff"/><stop offset="1" stop-color="#9dceff"/></linearGradient><linearGradient id="linear-gradient-2" x1="22.18" y1="9.69" x2="85.86" y2="73.37" xlink:href="#linear-gradient"/></defs><path d="M127.07,43.91c0-18.68,10.87-27.22,25.15-27.22,9.16,0,16.73,3.9,21,11.35,4.27-7.45,11.72-11.35,21-11.35,14.28,0,25.15,8.54,25.15,27.22V78.58H206.18V43.91c0-10.5-5.49-15-13.18-15s-13.07,4.76-13.07,15V78.58H166.75V43.91c0-10.25-5.74-15-13.31-15s-13.18,4.51-13.18,15V78.58H127.07Z"/><path d="M228.89,49c0-19.17,13.43-32.35,32.59-32.35,18.93,0,32.11,12.82,32.11,32.23V78.58H281.5V66.13c-3.78,9.28-12.33,14-22.34,14C244,80.17,228.89,69.31,228.89,49Zm51.52-.61c0-11.35-7.57-19.53-19.05-19.53s-19.17,8.18-19.17,19.53S249.89,68,261.36,68,280.41,59.78,280.41,48.43Z"/><path d="M303.11,48.43c0-18.31,13.43-31.74,32.47-31.74,16.24,0,28.21,9.76,31.26,23.8H353.53c-2.81-7-9.28-11.59-17.95-11.59-11.47,0-19.16,8.18-19.16,19.53S324.11,68,335.58,68c8.67,0,15.14-4.64,17.95-11.6h13.31c-3,14-15,23.81-31.26,23.81C316.54,80.17,303.11,66.74,303.11,48.43Z"/><path d="M376.36,43.3c0-17.95,10.62-26.61,26.25-26.61s26.12,8.66,26.12,26.86V44H415.67V43.3c0-10.38-5.25-14.4-13.06-14.4s-13.07,4-13.07,14.4V78.58H376.36Z"/><path d="M500.1,44.16c0,5.5-.22,10.93-2.27,16.11-4.23,10.73-12.22,17-23.4,19.2a59.05,59.05,0,0,1-15.92.7,42.54,42.54,0,0,1-13.14-3.09,13.89,13.89,0,0,1-8.71-9.7,57.63,57.63,0,0,1-1.49-9.53c-.26-3.2-.19-6.44-.14-9.66.08-6.11,2.29-15,6.34-19.32a26.86,26.86,0,0,1,14.91-10,77.5,77.5,0,0,1,14.89-2.15,95.67,95.67,0,0,1,12.27.2c8,.68,12.88,4.75,14.92,12.47a20.07,20.07,0,0,1,.67,3.15A61.12,61.12,0,0,1,500.1,44.16ZM486.47,49c0-11.12-6.35-18.57-16.58-19.93a18.73,18.73,0,0,0-18.84,8.8,20.48,20.48,0,0,0-2.63,12c.54,7.25,3.6,13,10.4,16.12s13.74,2.77,20-1.59C484.34,60.57,486.31,54.89,486.47,49Z"/><path class="cls-1" d="M0,80.88c0-14.25,10.45-24.7,25.27-24.7s25.28,10.45,25.28,24.7S40.1,105.59,25.27,105.59,0,95.13,0,80.88Z"/><path class="cls-2" d="M51.72,0C25.42,0,6.87,18.54,6.87,43.83A47.76,47.76,0,0,0,8.09,54.67a33.08,33.08,0,0,1,17.18-4.58C43.49,50.09,56.7,63,56.7,80.88a34.53,34.53,0,0,1-.63,6.6C80,85.55,96.56,67.7,96.56,43.83,96.56,18.54,78,0,51.72,0Z"/></svg>