<svg
  xmlns="http://www.w3.org/2000/svg"
  viewBox="0 0 24 24"
>
  <path
    d="M 22.8 2.376 C 22.488 2.112 21.984 2.088 21.12 2.352 C 20.52 2.544 15.192 4.56 10.488 6.504 C 6.264 8.256 2.832 9.792 2.424 9.984 C 1.968 10.128 0.984 10.56 0.936 11.232 C 0.912 11.664 1.272 12.048 1.968 12.36 C 2.712 12.744 6 13.848 6.696 14.064 C 6.936 14.88 8.352 19.656 8.424 19.944 C 8.52 20.376 8.808 20.616 8.952 20.712 C 8.976 20.736 9.024 20.784 9.072 20.808 C 9.144 20.856 9.24 20.88 9.36 20.88 C 9.528 20.88 9.72 20.808 9.888 20.688 C 10.776 19.968 12.312 18.36 12.744 17.904 C 14.64 19.392 16.704 21.048 16.896 21.24 L 16.92 21.264 C 17.376 21.648 17.856 21.864 18.288 21.864 C 18.432 21.864 18.576 21.84 18.72 21.792 C 19.224 21.624 19.584 21.144 19.704 20.496 C 19.704 20.472 19.728 20.376 19.776 20.208 C 20.592 16.656 21.24 13.536 21.768 10.92 C 22.272 8.352 22.68 5.832 22.92 4.488 C 22.968 4.152 23.016 3.888 23.04 3.72 C 23.112 3.24 23.16 2.688 22.8 2.376 Z M 7.2 13.992 L 18.648 6.408 C 18.672 6.384 18.72 6.36 18.744 6.336 C 18.768 6.336 18.768 6.312 18.792 6.312 C 18.816 6.312 18.816 6.312 18.84 6.288 C 18.816 6.312 18.792 6.384 18.744 6.432 L 15.84 9.144 C 13.824 10.992 11.184 13.416 9.432 15 L 9.432 15.024 L 9.408 15.048 C 9.408 15.048 9.408 15.072 9.384 15.072 C 9.384 15.096 9.384 15.096 9.36 15.12 L 9.36 15.168 C 9.24 16.512 9.024 18.816 8.928 19.848 L 8.928 19.824 C 8.832 19.536 7.488 14.952 7.2 13.992 Z"
    fill="white"
  ></path>
</svg>