<?xml version="1.0" standalone="no"?>
<!DOCTYPE svg PUBLIC "-//W3C//DTD SVG 20010904//EN"
 "http://www.w3.org/TR/2001/REC-SVG-20010904/DTD/svg10.dtd">
<svg version="1.0" xmlns="http://www.w3.org/2000/svg"
 width="260.000000pt" height="260.000000pt" viewBox="0 0 260.000000 260.000000"
 preserveAspectRatio="xMidYMid meet">
<metadata>
Created by potrace 1.14, written by Peter Selinger 2001-2017
</metadata>
<g transform="translate(0.000000,260.000000) scale(0.100000,-0.100000)"
fill="#000000" stroke="none">
<path d="M0 1300 l0 -1300 1300 0 1300 0 0 1300 0 1300 -1300 0 -1300 0 0
-1300z m510 110 l0 -690 340 0 341 0 -3 -132 -3 -133 -482 -3 -483 -2 0 825 0
825 145 0 145 0 0 -690z m890 500 l0 -80 -215 0 -215 0 0 -120 0 -120 190 0
190 0 0 -80 0 -80 -190 0 -190 0 0 -130 0 -130 220 0 220 0 0 -85 0 -85 -307
2 -308 3 -3 493 -2 492 305 0 305 0 0 -80z m342 25 c9 -27 58 -178 109 -335
l91 -284 79 254 c44 140 91 292 104 338 l26 82 79 0 c44 0 80 -3 80 -7 -1 -5
-67 -197 -148 -428 l-148 -420 -80 0 -79 0 -147 415 c-81 228 -147 421 -147
428 -1 10 19 12 81 10 l83 -3 17 -50z m82 -966 l120 -280 111 278 111 278 77
3 77 3 -2 -398 -3 -398 -65 0 -65 0 -3 260 -2 260 -88 -220 -88 -220 -64 -3
-65 -2 -90 221 -90 221 -3 -262 -2 -261 -68 3 -67 3 -3 398 -2 397 77 0 78 0
119 -281z"/>
</g>
</svg>
